<svg width="19" height="50" viewBox="0 0 19 50" fill="none" xmlns="http://www.w3.org/2000/svg">
<path fill-rule="evenodd" clip-rule="evenodd" d="M18.9331 9.49079L9.46656 0L0 9.49079L9.46656 18.9794L18.9331 9.49079ZM1.9399 20.7705C0.750457 21.5636 0.43393 26.1709 0.43393 26.1709C0.43393 26.1709 0.750457 30.7786 1.9399 31.5716C3.12775 32.3663 9.46656 32.8428 9.46656 32.8428C9.46656 32.8428 15.8056 32.3663 16.993 31.5716C18.1827 30.7786 18.4992 26.1709 18.4992 26.1709C18.4992 26.1709 18.1827 21.5633 16.993 20.7705C15.8056 19.9753 9.46656 19.4988 9.46656 19.4988C9.46656 19.4988 3.12775 19.9753 1.9399 20.7705ZM1.38511 41.8981C1.38511 37.4225 5.00216 33.7961 9.46656 33.7961C13.9307 33.7961 17.5477 37.4225 17.5477 41.8981C17.5477 46.3734 13.9304 50 9.46656 50C5.00216 50 1.38511 46.3734 1.38511 41.8981Z" fill="white"/>
</svg>
