<svg width="45" height="53" viewBox="0 0 45 53" fill="none" xmlns="http://www.w3.org/2000/svg">
<path fill-rule="evenodd" clip-rule="evenodd" d="M13.0548 0.874221C12.6954 0.454895 12.0641 0.406333 11.6448 0.765755C11.2255 1.12518 11.1769 1.75648 11.5363 2.1758L14.2939 5.39296C9.67717 8.44177 7.48747 13.7707 6.90159 16.9344H37.7211C37.1144 13.6587 34.7885 8.06184 29.8294 5.078L32.317 2.1758C32.6764 1.75648 32.6279 1.12518 32.2085 0.765755C31.7892 0.406333 31.1579 0.454895 30.7985 0.874221L27.9903 4.15047C26.3434 3.46946 24.4582 3.06567 22.3113 3.06567C19.9176 3.06567 17.8492 3.56766 16.0737 4.39619L13.0548 0.874221ZM14.6069 12.3115V9.22987H17.6886V12.3115H14.6069ZM26.9348 9.22987V12.3115H30.0165V9.22987H26.9348ZM7 19H38V38.7101C36.2315 39.1164 34.5803 39.4823 33 39.7962V49.0983C33 50.7551 31.6569 52.0983 30 52.0983C28.3431 52.0983 27 50.7551 27 49.0983V40.742C24.3884 41.0195 21.8076 41.0862 19 40.8781V49.0983C19 50.7551 17.6569 52.0983 16 52.0983C14.3431 52.0983 13 50.7551 13 49.0983V40.0756C11.1478 39.7292 9.16405 39.2781 7 38.7101V19ZM5.5 22C5.5 20.6193 4.38071 19.5 3 19.5C1.61929 19.5 0.5 20.6193 0.5 22V35.0983C0.5 36.479 1.61929 37.5983 3 37.5983C4.38071 37.5983 5.5 36.479 5.5 35.0983V22ZM44.5 22C44.5 20.6193 43.3807 19.5 42 19.5C40.6193 19.5 39.5 20.6193 39.5 22V35.0983C39.5 36.479 40.6193 37.5983 42 37.5983C43.3807 37.5983 44.5 36.479 44.5 35.0983V22Z" fill="white"/>
</svg>
