<svg width="52" height="45" viewBox="0 0 52 45" fill="none" xmlns="http://www.w3.org/2000/svg">
<path d="M18.4062 0C18.4062 5.03784 18.346 15.0711 15.1562 21.9375C11.6657 29.4497 2.67882 33.5681 0 33.5938V44.7188C10.2765 43.6842 17.2596 33.6302 19.875 23.875C22.101 15.5791 21.8316 1.42578 21.8438 0H18.4062ZM23.9375 0C23.9375 0 24.0037 18.8734 23.5313 26.4375C22.7109 39.6132 19.0625 44.7188 19.0625 44.7188H33.375C33.375 44.7188 29.4315 39.5774 28.5313 26.3438C28.0076 18.6521 28 0 28 0H23.9375ZM30.0625 0C30.0747 1.42578 29.8059 15.5791 32.0313 23.875C34.646 33.6302 41.5985 43.6842 51.875 44.7188V33.5938C49.1949 33.5681 40.2369 29.4497 36.75 21.9375C33.556 15.0711 33.5 5.03784 33.5 0H30.0625Z" fill="white"/>
</svg>
