<svg width="50" height="49" viewBox="0 0 50 49" fill="none" xmlns="http://www.w3.org/2000/svg">
<path fill-rule="evenodd" clip-rule="evenodd" d="M24.2927 0C10.8807 0 0 10.8807 0 24.2927C0 37.7047 10.8807 48.5709 24.2927 48.5709C26.8719 48.5709 29.3613 48.1614 31.693 47.4169V35.2994C29.6794 36.4702 27.3229 37.1459 24.7976 37.1459C17.4173 37.1459 11.4395 31.3918 11.4395 24.2927C11.4395 17.1936 17.4173 11.4395 24.7976 11.4395C27.3229 11.4395 29.6794 12.1152 31.693 13.286V1.15405C29.3613 0.408644 26.8719 0 24.2927 0ZM31.9073 15.0539H50L41.9079 23.4813H31.9073V15.0539ZM50 33.6164H31.9073V25.1891H41.9079L50 33.6164Z" fill="white"/>
</svg>
