<svg width="29" height="50" viewBox="0 0 29 50" fill="none" xmlns="http://www.w3.org/2000/svg">
<path fill-rule="evenodd" clip-rule="evenodd" d="M0 3C0 1.34315 1.34315 0 3 0H26C27.6569 0 29 1.34315 29 3V47C29 48.6569 27.6569 50 26 50H3C1.34315 50 0 48.6569 0 47V3ZM3 39H26V6V5H3.72414H3V6V39ZM21 3V1H8V3H21ZM18.0599 44.8377C18.0599 46.6767 16.5528 48.1676 14.6937 48.1676C12.8346 48.1676 11.3275 46.6767 11.3275 44.8377C11.3275 42.9987 12.8346 41.5079 14.6937 41.5079C16.5528 41.5079 18.0599 42.9987 18.0599 44.8377Z" fill="white"/>
</svg>
