<svg width="43" height="50" viewBox="0 0 43 50" fill="none" xmlns="http://www.w3.org/2000/svg">
<path d="M18.281 11.4632C18.0894 11.4736 17.9269 11.5881 17.8499 11.7527L17.8478 11.7569C17.7644 11.9332 17.6853 12.0214 17.6103 12.0214C17.5173 12.0409 17.4707 11.9943 17.4707 11.8818C17.4707 11.6597 17.6471 11.5201 17.9998 11.4632H18.281ZM20.7057 11.8527C20.6308 11.8721 20.5238 11.8117 20.385 11.6715C20.2995 11.5798 20.1787 11.5215 20.0454 11.5215C19.9913 11.5215 19.9413 11.5298 19.8933 11.5465H19.8975C20.3419 11.3423 20.6398 11.3604 20.7912 11.6006C20.8099 11.6277 20.8203 11.659 20.8203 11.6944C20.8203 11.7673 20.7745 11.8277 20.7099 11.8506H20.7078L20.7057 11.8527ZM10.9153 23.7658C10.9028 23.7616 10.8903 23.7595 10.8757 23.7595C10.8174 23.7595 10.7674 23.797 10.7487 23.847C10.7028 23.9428 10.6612 24.0595 10.6278 24.1803L10.6237 24.197C10.5841 24.3407 10.532 24.4657 10.4654 24.5823L10.4695 24.574C10.382 24.7094 10.2904 24.8281 10.1883 24.9386L10.1904 24.9365C10.0043 25.1406 9.99458 25.2517 10.1612 25.2698C10.2362 25.2892 10.3522 25.2239 10.5091 25.074C10.657 24.9365 10.7757 24.7698 10.8549 24.5823L10.8591 24.574C10.8785 24.5185 10.8966 24.4532 10.9132 24.3782C10.9278 24.3136 10.9465 24.2595 10.9695 24.2053L10.9674 24.2116C10.9861 24.1761 11.0007 24.1345 11.009 24.0907V24.0866C11.0174 24.0532 11.0215 24.0158 11.0215 23.9762V23.8928L10.9924 23.822L10.9153 23.7658ZM34.7665 33.7812C34.7665 33.4479 34.2547 33.0591 33.2313 32.6147C33.3063 32.3355 33.3764 32.08 33.4417 31.8481C33.5021 31.6419 33.5521 31.3961 33.5791 31.144L33.5812 31.1232C33.609 30.8718 33.6368 30.6719 33.6645 30.5233C33.6812 30.4129 33.6916 30.2837 33.6916 30.1546C33.6916 30.0629 33.6875 29.9733 33.677 29.8838V29.8942C33.6576 29.6248 33.6479 29.4435 33.6479 29.3505C33.6291 29.1214 33.5937 28.9131 33.5437 28.7089L33.55 28.736C33.4847 28.4194 33.4472 28.2291 33.4375 28.1652C33.4278 28.1014 33.3812 27.8694 33.2979 27.4695C33.2146 27.0695 33.1632 26.823 33.1438 26.73C32.8751 25.6343 32.423 24.674 31.8148 23.8324L31.8314 23.8574C31.3148 23.0117 30.642 22.3118 29.8484 21.7806L29.8234 21.766C30.467 22.4201 31.0003 23.1867 31.3919 24.0303L31.4127 24.0803C32.4772 25.6947 33.1104 27.6757 33.1104 29.8046C33.1104 30.5233 33.0375 31.2253 32.9001 31.9023L32.9105 31.8356C32.7834 32.5022 32.2085 32.998 31.5169 33.0021C30.9406 33.0771 30.583 32.9049 30.4441 32.4855C30.2983 31.8856 30.215 31.1961 30.215 30.4879C30.215 30.3691 30.2171 30.2525 30.2212 30.1358V30.1525C30.2212 30.1337 30.2212 30.1108 30.2212 30.0858C30.2212 29.0505 30.1046 28.0444 29.8817 27.0758L29.8984 27.1654C29.7234 26.3842 29.5359 25.7405 29.3151 25.1114L29.3547 25.2406C29.1922 24.749 29.0089 24.3282 28.7902 23.9303L28.811 23.9699C28.643 23.6825 28.4992 23.4547 28.3798 23.2867C28.2694 23.1304 28.1486 22.993 28.0173 22.8701L28.0153 22.868L27.8174 22.6722C27.5799 21.5619 27.282 20.6016 26.9091 19.6788L26.9529 19.7996C26.7321 19.2039 26.4529 18.6872 26.1155 18.2186L26.128 18.2373C25.903 17.9665 25.6864 17.6665 25.4927 17.3499L25.4739 17.3166C25.1906 16.8771 25.0219 16.3417 25.0219 15.7647C25.0219 15.3835 25.0948 15.021 25.2281 14.6877L25.2219 14.7065C25.3302 14.4399 25.3947 14.1295 25.3947 13.8045C25.3947 13.6337 25.3781 13.4692 25.3448 13.3088L25.3468 13.3254C25.2441 13.0088 24.8302 12.7769 24.1053 12.6297C23.6325 12.5026 23.22 12.3318 22.8367 12.1152L22.8638 12.1297C22.5826 11.9673 22.2576 11.8173 21.916 11.6965L21.8744 11.684C21.7258 11.6645 21.6237 11.4229 21.5681 10.959C21.5577 10.8695 21.5515 10.7653 21.5515 10.6612C21.5515 10.2529 21.639 9.86752 21.7973 9.51964L21.791 9.53631C21.9348 9.1072 22.3243 8.7989 22.7888 8.78224H22.7909C22.8534 8.77182 22.9263 8.76557 22.9992 8.76557C23.5554 8.76557 24.0282 9.11553 24.2116 9.60713L24.2136 9.61547C24.3553 9.89043 24.4386 10.2133 24.4386 10.557C24.4386 10.7987 24.397 11.032 24.322 11.2486L24.3261 11.234C24.122 11.5867 24.1039 11.8332 24.272 11.9735C24.44 12.1138 24.7177 12.1179 25.1052 11.986C25.3468 11.911 25.4677 11.5777 25.4677 10.9861V9.94876C25.3885 9.42591 25.2573 8.95721 25.076 8.51144L25.0906 8.5531C24.9594 8.21564 24.7594 7.93026 24.5053 7.7032L24.5032 7.70112C24.3157 7.53448 24.0991 7.39491 23.8637 7.28867L23.847 7.28242C23.6325 7.19493 23.3804 7.12203 23.1179 7.0762L23.095 7.07203C21.105 7.22063 20.2773 8.4663 20.612 10.8091C20.6162 10.8486 20.6183 10.8924 20.6183 10.9382C20.6183 11.0403 20.6058 11.1403 20.5808 11.2361L20.5828 11.2278C20.3641 11.0445 20.0808 10.9341 19.7704 10.9341C19.7663 10.9341 19.7621 10.9341 19.7579 10.9341C19.6371 10.9216 19.4996 10.9153 19.358 10.9153C19.1747 10.9153 18.9935 10.9278 18.8164 10.9507L18.8372 10.9486C18.6053 10.9847 18.4616 10.9382 18.406 10.8091C18.4123 10.7049 18.4165 10.582 18.4165 10.4591C18.4165 9.67587 18.2477 8.93222 17.9457 8.26355L17.9603 8.29688C17.7561 7.77403 17.2812 7.40116 16.7104 7.34908H16.7042C16.6937 7.34908 16.6813 7.34908 16.6688 7.34908C16.1605 7.34908 15.7272 7.66363 15.5501 8.10732L15.5481 8.11565C15.2939 8.59893 15.1273 9.1676 15.0898 9.76961V9.78211C15.0877 9.82377 15.0877 9.87377 15.0877 9.92376C15.0877 10.2383 15.1252 10.5466 15.1939 10.8403L15.1877 10.8132C15.2627 11.2069 15.3877 11.5569 15.5606 11.8798L15.5501 11.8589C15.7085 12.1464 15.8522 12.2721 15.9813 12.236C16.1792 12.1693 16.3375 12.0297 16.425 11.8506L16.4271 11.8464C16.5021 11.6784 16.4368 11.6041 16.2313 11.6235C16.1008 11.6235 15.957 11.4888 15.8001 11.2194C15.6439 10.9507 15.5481 10.6299 15.5356 10.2883V10.2841C15.5314 10.2425 15.5293 10.1946 15.5293 10.1446C15.5293 9.81336 15.6251 9.50506 15.7918 9.24468L15.7876 9.25093C15.9709 9.00721 16.2626 8.85098 16.5875 8.85098C16.6396 8.85098 16.6917 8.85514 16.7417 8.86348H16.7354C17.0895 8.88639 17.3812 9.12178 17.4874 9.44465L17.4895 9.4509C17.6561 9.76753 17.754 10.1425 17.754 10.5383V10.5591C17.754 10.7674 17.7395 10.9736 17.7103 11.1736L17.7124 11.1507C17.3707 11.3673 17.0833 11.636 16.8541 11.9506L16.8479 11.9589C16.6438 12.2297 16.3875 12.4484 16.0938 12.6068L16.0813 12.613C15.7189 12.8269 15.5286 12.9428 15.5106 12.9609C15.3043 13.1609 15.1544 13.4171 15.0814 13.7025L15.0794 13.7129C15.0669 13.7524 15.0585 13.7962 15.0585 13.842C15.0585 14.0045 15.1523 14.1441 15.2877 14.2107L15.2898 14.2128C15.5564 14.367 15.7876 14.5461 15.9876 14.7544C16.1459 14.9148 16.2938 15.0877 16.425 15.271L16.4334 15.2835C16.5646 15.4502 16.7396 15.5751 16.9416 15.6439L16.95 15.646C17.2437 15.7564 17.5832 15.823 17.9373 15.8272H17.9394C18.0019 15.8293 18.0769 15.8293 18.1498 15.8293C19.0914 15.8293 19.9975 15.6751 20.8432 15.3918L20.7828 15.4085C20.8189 15.3891 21.0328 15.3238 21.4244 15.2127C21.816 15.1016 22.1368 15.0037 22.3868 14.919C22.7076 14.8065 22.9784 14.6836 23.2388 14.5419L23.2117 14.5565C23.4533 14.4482 23.6512 14.2815 23.7949 14.0732L23.797 14.0691C23.9651 13.8094 24.1512 13.7351 24.3553 13.8462C24.4449 13.8983 24.5094 13.9816 24.5365 14.0795V14.0816C24.5407 14.1045 24.5449 14.1337 24.5449 14.1607C24.5449 14.2566 24.5094 14.3461 24.4532 14.4149C24.3386 14.5523 24.1803 14.6482 23.997 14.6794H23.9928C23.3429 14.8898 22.8201 15.0939 22.3118 15.321L22.416 15.2793C21.7369 15.5668 21.3133 15.748 21.1453 15.823C20.5849 16.0917 19.9308 16.3146 19.2476 16.4542L19.1914 16.4646C18.906 16.5021 18.5768 16.525 18.2415 16.525C17.7957 16.525 17.3582 16.4854 16.9333 16.4125L16.9791 16.4188C16.793 16.3827 16.709 16.4007 16.7271 16.4729C16.8583 16.6792 17.0145 16.8541 17.1979 17L17.202 17.0041C17.6478 17.3895 18.2331 17.6249 18.8726 17.6249C18.9435 17.6249 19.0122 17.6228 19.081 17.6165H19.0726C19.4392 17.5895 19.7788 17.5207 20.1017 17.4124L20.0725 17.4207C20.4704 17.2958 20.8016 17.1624 21.1203 17.0104L21.0724 17.0312C21.389 16.8826 21.7008 16.7201 22.0077 16.5438C22.3146 16.3674 22.5923 16.2091 22.8409 16.0688C23.0263 15.9626 23.2513 15.8501 23.4825 15.7522L23.5241 15.7355C23.6241 15.6835 23.7429 15.6522 23.8699 15.6522C23.9199 15.6522 23.9699 15.6564 24.0178 15.6668H24.0137C24.1428 15.7168 24.2345 15.8334 24.2511 15.9709V15.973C24.2491 16.0188 24.2386 16.0605 24.222 16.1001V16.098C24.1949 16.1542 24.1574 16.2021 24.1116 16.2376C24.0616 16.2792 24.0074 16.3209 23.9512 16.3584L23.9449 16.3625C23.8894 16.3986 23.8102 16.4452 23.7075 16.5021C23.6047 16.559 23.5207 16.6007 23.4554 16.6271C23.3901 16.6535 23.2971 16.7 23.1763 16.7667C23.1034 16.8104 23.0159 16.8521 22.9242 16.8875L22.9117 16.8916C22.1951 17.277 21.5786 17.6832 21.0036 18.1394L21.0286 18.1186C20.487 18.5498 19.8809 18.9497 19.2372 19.2872L19.1747 19.3184C18.9705 19.4372 18.7268 19.508 18.4664 19.508C18.2269 19.508 17.9998 19.4497 17.8019 19.3434L17.8103 19.3476C17.102 18.7893 16.5146 18.1144 16.0709 17.3437L16.0522 17.3103C15.6439 16.734 15.412 16.5299 15.3564 16.6979C15.3377 16.7687 15.3273 16.85 15.3273 16.9354V16.9791V16.977C15.3043 17.5561 15.1523 18.0957 14.9002 18.5748L14.9106 18.5539C14.6315 19.14 14.3572 19.6559 14.0878 20.1017C13.8129 20.5683 13.6087 21.1119 13.5046 21.691L13.5004 21.7202C13.4692 21.866 13.4504 22.0327 13.4504 22.2035C13.4504 22.6763 13.5879 23.1179 13.8274 23.4887L13.8212 23.4783C13.3935 23.5894 12.8123 24.4268 12.0777 25.9905C11.484 27.1279 11.0215 28.4444 10.7591 29.8338L10.7445 29.9233C10.7084 30.2566 10.6945 30.8982 10.7028 31.8481C10.7174 31.9814 10.7278 32.1377 10.7278 32.296C10.7278 32.723 10.6633 33.1354 10.5424 33.525L10.5508 33.4958C10.4022 33.9402 10.1328 33.968 9.74253 33.5791C9.12178 32.898 8.74266 31.9877 8.74266 30.9878C8.74266 30.9774 8.74266 30.9649 8.74266 30.9545V30.9566C8.73433 30.8399 8.72808 30.7045 8.72808 30.567C8.72808 30.1525 8.7739 29.7484 8.86139 29.3588L8.85514 29.3963C8.93013 29.0436 8.92041 28.8769 8.82598 28.8964C8.77599 28.9297 8.73641 28.9776 8.71558 29.0339V29.036C8.4427 29.638 8.2823 30.342 8.2823 31.0815C8.2823 32.0356 8.54685 32.9271 9.00513 33.6895L8.99263 33.6666C9.16552 33.9833 9.40091 34.2436 9.68212 34.4436L9.68837 34.4478C10.0605 34.745 10.2827 34.9311 10.355 35.006C11.2423 35.8893 12.1901 36.7162 13.1859 37.4786L13.2546 37.5307C14.8169 38.7861 15.6821 39.4978 15.8501 39.6659C16.1355 39.9325 16.3209 40.3054 16.3375 40.722V40.7262C16.3396 40.7512 16.3396 40.7824 16.3396 40.8136C16.3396 41.751 15.6022 42.5155 14.6753 42.5593H14.6711C14.9481 43.0405 15.2148 43.4467 15.5043 43.8341L15.4793 43.8008C15.8064 44.2299 16.073 44.7277 16.2501 45.2652L16.2605 45.3006C16.3875 45.8193 16.4584 46.413 16.4584 47.0254C16.4584 47.1108 16.4563 47.1962 16.4542 47.2795V47.267C17.3096 46.8226 17.3749 45.9672 16.65 44.7007C16.5625 44.5299 16.4646 44.384 16.3542 44.2507L16.3584 44.2549C16.2376 44.1063 16.1494 43.9952 16.0938 43.9216C16.0383 43.848 16.0202 43.7924 16.0397 43.7549C16.1313 43.6362 16.2542 43.5446 16.398 43.4925L16.4042 43.4904C16.4688 43.4592 16.5458 43.4425 16.6271 43.4425C16.7542 43.4425 16.8729 43.4862 16.9645 43.5612C17.82 44.5278 19.3636 44.8611 21.5952 44.5611H21.6077C23.6075 44.5611 25.3864 43.6154 26.5217 42.1489L26.5321 42.1343C26.9598 41.4275 27.2758 41.1497 27.4799 41.3011C27.7021 41.4122 27.7951 41.8955 27.759 42.7509C27.6299 43.7091 27.4049 44.5757 27.0904 45.3964L27.1174 45.3173C27.0029 45.5547 26.9362 45.8359 26.9362 46.1297C26.9362 46.2109 26.9404 46.2921 26.9508 46.3734V46.363C27.0064 46.6324 27.2285 46.7761 27.6174 46.7942C27.6729 46.4414 27.8076 45.7255 28.0215 44.6465C28.1819 43.9445 28.3152 43.0863 28.3923 42.2135L28.3985 42.1343C28.4006 42.076 28.4006 42.0073 28.4006 41.9385C28.4006 41.2823 28.334 40.6428 28.2069 40.0242L28.2173 40.0846C28.0819 39.3326 28.0069 38.466 28.0069 37.5828C28.0069 37.5099 28.0069 37.4391 28.009 37.3682V37.3787C28.009 37.3516 28.0069 37.3203 28.0069 37.287C28.0069 36.5767 28.2486 35.9226 28.6548 35.4039L28.6506 35.4102C28.9693 35.0956 29.4067 34.8998 29.89 34.8998C29.9546 34.8998 30.0192 34.904 30.0817 34.9102H30.0733C30.0733 34.9019 30.0733 34.8936 30.0733 34.8852C30.0733 34.2353 30.4649 33.6791 31.0274 33.4375L31.0378 33.4333C31.4732 33.2229 31.9835 33.0979 32.5251 33.0979C32.7147 33.0979 32.9001 33.1125 33.0813 33.1417L33.0605 33.1396C33.7041 33.1938 34.2874 33.4208 34.7727 33.7729L34.7623 33.7666L34.7665 33.7812ZM17.2478 10.7091C17.2666 10.6195 17.2791 10.5154 17.2791 10.4091C17.2791 10.2175 17.2416 10.0342 17.1749 9.86543L17.1791 9.87585C17.0763 9.63421 16.9694 9.49465 16.8583 9.45715C16.6903 9.42105 16.6063 9.48632 16.6063 9.65296C16.6271 9.72795 16.6771 9.78628 16.7437 9.81961H16.7458C16.9319 9.81961 16.9972 9.95917 16.9416 10.2383C16.8861 10.6105 16.9604 10.7966 17.1645 10.7966C17.1687 10.7966 17.1729 10.7987 17.177 10.7987C17.2166 10.7987 17.2499 10.7653 17.2499 10.7257C17.2499 10.7216 17.2499 10.7153 17.2478 10.7112V10.7091ZM28.936 16.2084C28.911 16.0792 28.8464 15.9688 28.7547 15.8876C28.6527 15.8147 28.5298 15.7668 28.3965 15.748H28.3923C28.2402 15.723 28.1027 15.6689 27.984 15.5918L27.9882 15.5939C27.8861 15.5314 27.7986 15.4564 27.7236 15.371L27.7215 15.3689C27.6382 15.2759 27.5729 15.2016 27.5257 15.146L27.3716 14.9648C27.3383 14.9231 27.3028 14.8856 27.2612 14.8544H27.2591C27.2397 14.8461 27.2022 14.8599 27.1466 14.8961C26.8869 15.1932 26.9522 15.5974 27.3424 16.1084C27.5966 16.5104 27.9715 16.8187 28.4152 16.9812L28.4298 16.9854C28.4423 16.9875 28.4589 16.9875 28.4735 16.9875C28.6318 16.9875 28.7672 16.8958 28.8339 16.7646L28.836 16.7625C28.9068 16.6479 28.9506 16.5084 28.9506 16.3584C28.9506 16.3021 28.9443 16.2501 28.9339 16.198V16.2021L28.936 16.2084ZM23.972 10.2675C23.972 10.2654 23.972 10.2612 23.972 10.2591C23.972 9.89668 23.797 9.57589 23.5283 9.37591L23.5262 9.37383C23.4151 9.29884 23.3311 9.27106 23.2742 9.29051C23.2617 9.28842 23.2492 9.28842 23.2346 9.28842C23.1659 9.28842 23.1013 9.30925 23.0492 9.34675C23.0325 9.35925 23.0221 9.38008 23.0221 9.40299C23.0221 9.42591 23.0325 9.44674 23.0492 9.45924C23.0867 9.49673 23.1346 9.52589 23.1867 9.54256H23.1888C23.4485 9.61755 23.6151 9.90571 23.6887 10.407C23.6887 10.4626 23.763 10.4445 23.9116 10.3529C23.9505 10.3126 23.9699 10.2848 23.9699 10.2696L23.972 10.2675ZM25.4718 3.76828C25.4635 3.71204 25.4385 3.66413 25.401 3.62871C25.3302 3.55372 25.251 3.48915 25.1635 3.43915L25.1594 3.43707C25.0385 3.36208 24.9504 3.30653 24.8948 3.27042C24.7323 3.06212 24.5011 2.91214 24.2366 2.85381L24.2282 2.85173H24.2261C24.0845 2.85173 23.9616 2.93713 23.9074 3.06003V3.06212C23.8804 3.12878 23.8637 3.20793 23.8637 3.28917C23.8637 3.33708 23.8699 3.38499 23.8804 3.43082V3.42666C23.8929 3.47248 23.8991 3.52456 23.8991 3.57664C23.8991 3.64746 23.8866 3.71412 23.8658 3.77869L23.8679 3.77453C23.8283 3.88701 23.772 3.98492 23.7012 4.06824V4.06616C23.6387 4.13907 23.5846 4.22239 23.5387 4.30988L23.5346 4.31821C23.5151 4.36543 23.5429 4.44458 23.6179 4.55568C23.647 4.58276 23.6866 4.59943 23.7304 4.59943C23.7741 4.59943 23.8116 4.58276 23.8429 4.55568C23.9178 4.50013 24.0199 4.41612 24.1491 4.30363C24.2678 4.19948 24.4074 4.11407 24.5574 4.05574L24.5678 4.05158C24.624 4.03075 24.6886 4.02033 24.7552 4.02033C24.7782 4.02033 24.8011 4.02241 24.8219 4.0245H24.8198H24.8323C24.976 4.0245 25.1156 4.00367 25.2468 3.96617L25.2364 3.96825C25.3468 3.94326 25.4364 3.87035 25.4822 3.77245V3.77036L25.4718 3.76828ZM41.2323 41.1782C41.5636 41.3698 41.8489 41.5948 42.0947 41.8594L42.0968 41.8614C42.2697 42.0364 42.3905 42.2656 42.4301 42.5218V42.528C42.4343 42.5697 42.4364 42.6197 42.4364 42.6697C42.4364 42.8446 42.4093 43.0113 42.3572 43.1675L42.3614 43.1571C42.2697 43.4029 42.1218 43.6091 41.9323 43.7695L41.9302 43.7716C41.7323 43.9549 41.5177 44.132 41.2969 44.3007L41.2761 44.3153C41.0365 44.4882 40.7657 44.6611 40.4804 44.8131L40.4429 44.8319C40.0985 45.018 39.8054 45.1714 39.5638 45.2923C39.3222 45.4131 39.0243 45.5568 38.6702 45.7235C38.316 45.8901 38.0647 46.0109 37.9161 46.0859C37.0079 46.565 36.2288 47.0837 35.5039 47.669L35.531 47.6482C34.7519 48.2461 34.0666 48.8293 33.4104 49.4459L33.425 49.4334C32.923 49.775 32.3043 49.9792 31.6377 49.9792C31.6002 49.9792 31.5606 49.9792 31.5231 49.9771H31.5294C31.3877 49.9917 31.2232 50 31.0565 50C30.3295 50 29.638 49.8417 29.0151 49.5605L29.0464 49.573C28.7193 49.4126 28.4444 49.1918 28.2256 48.9231L28.2215 48.9189C28.0486 48.7127 27.8965 48.4773 27.7715 48.2273L27.7611 48.2065C27.6236 47.9628 27.4112 47.7732 27.157 47.667L27.1487 47.6649C26.7717 47.4982 26.3321 47.4003 25.8697 47.4003C25.8593 47.4003 25.8468 47.4003 25.8364 47.4003H25.8384C25.0191 47.3809 23.8102 47.3712 22.2118 47.3712C21.8591 47.3712 21.3293 47.3851 20.6224 47.4128C19.9156 47.4406 19.3761 47.4642 19.0039 47.4837C18.204 47.492 17.4437 47.644 16.7417 47.9169L16.7854 47.9023C16.2105 48.1065 15.7126 48.3898 15.2752 48.7439L15.2856 48.7356C14.9356 49.0418 14.5357 49.3063 14.1045 49.5167L14.0732 49.5313C13.6712 49.7355 13.1984 49.8563 12.6963 49.8563C12.6526 49.8563 12.6109 49.8563 12.5672 49.8542H12.5734C11.4215 49.6813 10.3841 49.3792 9.41132 48.9606L9.49465 48.9918C8.37604 48.5502 7.01371 48.1377 5.6118 47.8274L5.42224 47.7919C5.06951 47.717 4.59526 47.6288 3.9995 47.5274C3.40374 47.426 2.93852 47.342 2.60384 47.2753C2.26916 47.2087 1.90185 47.1205 1.5019 47.0108C1.14777 46.9212 0.835312 46.7837 0.556181 46.5983L0.568679 46.6046C0.364538 46.4692 0.204141 46.2859 0.0979044 46.0692L0.0937383 46.0609C0.0354122 45.8568 0 45.6235 0 45.3797C0 44.9506 0.106237 44.5465 0.293713 44.1924L0.287464 44.207C0.483273 43.7758 0.654085 43.2696 0.776986 42.7426L0.787402 42.6863C0.789485 42.6468 0.789485 42.6009 0.789485 42.5551C0.789485 42.2051 0.747823 41.8656 0.67075 41.5406L0.676999 41.5698C0.583955 41.1254 0.490911 40.7303 0.397867 40.3845C0.31871 40.1054 0.272883 39.7846 0.272883 39.4513C0.272883 39.4222 0.272883 39.3909 0.274966 39.3617V39.3659C0.274966 39.3534 0.274966 39.3368 0.274966 39.3222C0.274966 39.0451 0.387452 38.7952 0.568679 38.6139C0.979044 38.366 1.47482 38.2202 2.006 38.2202C2.06016 38.2202 2.11432 38.2223 2.1664 38.2244H2.15806H2.2393C2.81215 38.2244 3.35791 38.1015 3.84952 37.8807L3.82452 37.8911C4.28488 37.637 4.67233 37.312 4.98479 36.9225L4.99104 36.9141C5.20352 36.5558 5.33058 36.1247 5.33058 35.6643C5.33058 35.6039 5.3285 35.5435 5.32433 35.4831V35.4914C5.45557 35.7747 5.53264 36.108 5.53264 36.4579C5.53264 37.287 5.10561 38.014 4.45778 38.4348L4.44944 38.441C3.94117 38.7306 3.33292 38.9014 2.683 38.9014C2.48927 38.9014 2.29971 38.8868 2.11432 38.8576L2.13515 38.8597C1.50328 38.8042 1.10333 38.8972 0.9353 39.1389C0.693663 39.418 0.740185 39.9478 1.07487 40.7282C1.14986 40.9282 1.22485 41.0928 1.31025 41.2511L1.29984 41.2282C1.41093 41.4504 1.49009 41.617 1.53731 41.7281C1.58938 41.8635 1.63313 42.0239 1.66021 42.1885L1.66229 42.2031C1.68521 42.326 1.69979 42.4676 1.69979 42.6134C1.69979 42.6842 1.69562 42.7551 1.68937 42.8259V42.8176C1.61855 43.33 1.44982 43.7904 1.2061 44.2007L1.21443 44.1841C0.970712 44.559 0.824897 45.0194 0.824897 45.5131V45.5172C0.880446 45.8339 1.22415 46.0755 1.85602 46.2421C2.22819 46.3532 3.01421 46.5254 4.21406 46.7587C5.41391 46.992 6.33949 47.1823 6.99079 47.3295C7.43518 47.4406 8.12329 47.6447 9.05512 47.9419C9.98695 48.2391 10.7542 48.453 11.3569 48.5835C11.6881 48.6689 12.0693 48.7168 12.4609 48.7168C12.6172 48.7168 12.7734 48.7085 12.9255 48.6939L12.9067 48.696C13.6066 48.6398 14.2295 48.3523 14.7086 47.9128L14.7065 47.9148C15.0669 47.5753 15.3043 47.1108 15.3481 46.59V46.5817C15.3502 46.5296 15.3502 46.4671 15.3502 46.4046C15.3502 45.8859 15.2731 45.386 15.1273 44.9131L15.1377 44.9486C14.9919 44.3924 14.8106 43.9091 14.5878 43.4529L14.6086 43.4987C14.4225 43.1363 14.2364 42.7967 14.0503 42.4801C12.5005 39.9158 10.9445 37.7161 9.25093 35.633L9.33633 35.7414C8.0726 34.3651 7.02135 33.993 6.18256 34.6248C5.97842 34.7929 5.83885 34.6533 5.76386 34.2061C5.7222 33.9749 5.69929 33.7083 5.69929 33.4354C5.69929 33.3333 5.70345 33.2333 5.7097 33.1313V33.1459C5.72012 32.623 5.82219 32.1252 5.99717 31.6669L5.98675 31.696C6.18881 31.1899 6.41378 30.7587 6.67208 30.3525L6.65334 30.3837C6.87414 30.0504 7.07828 29.6671 7.24909 29.2651L7.26784 29.2172C7.41643 28.8256 7.66293 28.1562 8.00733 27.2091C8.35173 26.262 8.62601 25.5364 8.83015 25.0323C9.11344 24.3532 9.39258 23.7929 9.70295 23.2554L9.66338 23.3325C9.97375 22.7597 10.3341 22.2681 10.7549 21.8306L10.7528 21.8327C12.1214 20.2704 13.2796 18.4769 14.1586 16.5292L14.2128 16.3938C13.9906 14.3107 13.842 11.4284 13.767 7.74695C13.7587 7.58239 13.7524 7.39074 13.7524 7.1991C13.7524 5.87635 14.0024 4.61192 14.4586 3.45165L14.4336 3.52039C15.0648 2.22681 16.0938 1.20818 17.3603 0.608257L17.3978 0.591593C18.1686 0.21664 19.0726 0 20.0287 0C20.1246 0 20.2183 0.00208307 20.3141 0.00624922H20.3016C20.3537 0.00624922 20.4162 0.00416615 20.4787 0.00416615C21.4682 0.00416615 22.4264 0.141649 23.3325 0.39995L23.2596 0.381202C24.2074 0.624922 25.0365 1.02487 25.7634 1.55397L25.7426 1.53939C26.8654 2.41428 27.7382 3.55789 28.2756 4.87439L28.2944 4.92855C28.8193 6.018 29.1255 7.29909 29.1255 8.651C29.1255 8.78849 29.1214 8.92597 29.1151 9.06137V9.04262C29.1109 9.20093 29.1068 9.38633 29.1068 9.5738C29.1068 11.5152 29.4151 13.3858 29.9838 15.1398L29.9483 15.0127C30.7378 17.3937 32.0106 19.4309 33.6583 21.0953L33.6562 21.0932C34.7936 22.3868 35.7289 23.8928 36.3955 25.5364L36.4329 25.6426C37.1349 27.1737 37.712 28.961 38.0744 30.8232L38.0994 30.9753C38.1994 31.5023 38.2577 32.1085 38.2577 32.7292C38.2577 32.9417 38.2515 33.1521 38.2369 33.3604L38.239 33.3313C38.2098 33.8958 38.0911 34.4228 37.8932 34.9123L37.9057 34.879C37.7376 35.2512 37.5516 35.4553 37.3474 35.4914C37.0725 35.5956 36.8475 35.7809 36.6954 36.0163L36.6913 36.0226C36.4399 36.3392 36.1885 36.669 35.9372 37.012C35.633 37.3974 35.256 37.712 34.8269 37.9369L34.8082 37.9453C34.3603 38.1931 33.827 38.339 33.2604 38.339C33.2063 38.339 33.1521 38.3369 33.1 38.3348H33.1084C32.7897 38.3202 32.4897 38.2702 32.2022 38.189L32.2293 38.1952C31.9814 38.1244 31.7689 37.9932 31.6023 37.8182C31.4732 37.6849 31.3503 37.5453 31.2336 37.3974L31.2253 37.387C31.1107 37.2224 31.0045 37.035 30.9128 36.8391L30.9024 36.8162C30.7719 36.5468 30.6878 36.3656 30.6503 36.2726C30.2421 35.5851 29.8609 35.3074 29.5067 35.4393C29.1526 35.5712 28.8922 36.0267 28.7256 36.8058C28.6714 37.0974 28.6402 37.4307 28.6402 37.7724C28.6402 38.3952 28.7422 38.993 28.9318 39.5513L28.9193 39.5117C29.1068 40.3491 29.213 41.3115 29.213 42.2989C29.213 43.2383 29.1172 44.1528 28.9318 45.0381L28.9464 44.9506C28.8818 45.2006 28.8464 45.4902 28.8464 45.7859C28.8464 46.5192 29.0714 47.2024 29.4547 47.7649L29.4463 47.7524C29.8692 48.319 30.5379 48.6793 31.2898 48.6793C31.3565 48.6793 31.4252 48.6773 31.4898 48.671H31.4815C32.398 48.6043 33.2167 48.2398 33.8583 47.6774L33.8541 47.6815C34.5957 47.0337 35.4122 46.4234 36.2726 45.8755L36.3538 45.8276C37.1641 45.4006 38.1202 44.9985 39.1118 44.6798L39.2409 44.6444C40.0596 44.3986 40.772 44.0507 41.4157 43.6091L41.3886 43.6258C41.833 43.2814 42.0052 42.9606 41.9052 42.6634C41.7656 42.3218 41.5219 42.0489 41.2157 41.8719L41.2074 41.8677C40.7949 41.6136 40.32 41.3907 39.8179 41.2261L39.77 41.2115C39.1347 40.9845 38.6368 40.5033 38.3931 39.8929L38.3869 39.8784C38.1223 39.3243 37.9661 38.6723 37.9661 37.9869C37.9661 37.9411 37.9661 37.8953 37.9682 37.8494V37.8557C37.964 37.8119 37.9619 37.7619 37.9619 37.7099C37.9619 37.2558 38.1265 36.8391 38.4015 36.5184L38.3994 36.5204C38.4119 37.087 38.4931 37.6286 38.6327 38.1452L38.6223 38.0973C38.7347 38.5327 38.8722 38.9076 39.043 39.2659L39.0264 39.2284C39.1847 39.5326 39.3742 39.795 39.5992 40.0242C39.7763 40.2179 39.9679 40.3908 40.1741 40.547L40.1846 40.5554C40.3332 40.6581 40.5331 40.7789 40.7845 40.9178C41.0358 41.0567 41.1872 41.1435 41.2386 41.1782H41.2323Z" fill="white"/>
</svg>
