<svg width="115" height="52" viewBox="0 0 115 52" fill="none" xmlns="http://www.w3.org/2000/svg">
<path fill-rule="evenodd" clip-rule="evenodd" d="M90.8313 31.1513H91.994C93.0784 31.1513 94.9361 31.3747 95.7006 31.8235C96.4658 32.2685 96.9695 32.7677 97.2127 33.3201C97.4568 33.8733 97.5802 35.0919 97.5802 36.9739V44.3631C97.5802 46.593 95.2241 47.7289 94.0882 47.9753C92.9494 48.2217 91.8419 48.3451 90.7615 48.3451C87.6504 48.3451 84.966 47.5359 82.7013 45.9163C80.4399 44.2955 78.8015 41.7624 77.7846 38.3075C76.7697 34.8578 76.2644 30.8465 76.2644 26.2652C76.2644 22.486 76.7281 18.8002 77.6564 15.2095C78.585 11.6172 80.1659 8.8189 82.3974 6.80986C84.6289 4.80361 87.426 3.79948 90.785 3.79948C94.3015 3.79948 96.3568 4.68937 98.945 7.37901C101.591 10.1274 104.129 13.2504 105.611 17.8356H107.775V1.0004H106.544C106.1 2.34882 105.615 3.26387 105.085 3.74796C104.554 4.23324 103.978 4.47449 103.361 4.47449C102.962 4.47449 101.672 4.03634 99.4962 3.16003C97.319 2.28252 95.7433 1.7497 94.7712 1.56198C92.9806 1.18853 91.5894 1 89.3591 1C82.1537 1 76.1705 3.47636 71.4175 8.42907C66.6645 13.3858 64.288 19.4528 64.288 26.6343C64.288 30.6484 65.0605 34.275 66.6082 37.5143C67.8244 40.0258 69.5107 42.2832 71.6648 44.2923C73.8204 46.2989 76.3099 47.9197 79.1258 49.1531C81.9444 50.3837 85.4884 51 89.7541 51C93.0932 51 96.3125 50.655 99.4199 49.9655C102.527 49.2737 105.515 48.2496 108.395 46.8936V36.9643C108.395 35.2236 108.492 34.1292 108.692 33.6835C109.044 32.8359 109.546 32.2316 110.198 31.8658C110.848 31.4997 112.624 31.2611 114.28 31.1416V29.516H90.8222V31.1416L90.8313 31.1513ZM17.2708 47.8884H17.264V47.886L17.2708 47.8884ZM17.264 47.8884H16.1884C14.6354 47.8884 13.2563 47.4119 12.0505 46.4585C10.8466 45.5047 10.2439 43.6682 10.2439 40.9466V12.3008L41.2742 50.9838L43.2861 50.9862V11.5323C43.2861 9.28918 43.4724 8.63815 43.8424 7.71511C44.2127 6.79206 44.7303 6.12584 45.3914 5.71684C46.0528 5.30824 47.3509 4.97554 49.2809 4.71792V2.71047H33.8875V4.71792C36.4254 4.67159 38.2371 5.32542 39.3115 6.68102C40.0984 7.68554 40.4914 8.68127 40.4914 11.5339V32.1955L16.3349 2.71086H1.63659V4.30372C2.62249 4.33642 2.93735 4.57934 3.29875 4.85817C3.44949 4.97448 3.60834 5.09703 3.82736 5.21319L7.76475 9.17575L7.75924 40.945C7.75924 43.4569 7.26318 45.2347 6.27224 46.2811C5.2805 47.328 3.52229 47.8624 1 47.886V49.8063H17.264V47.8884ZM56.7383 32.5115C59.8891 32.5115 62.4449 29.9575 62.4449 26.8048C62.4449 23.654 59.8909 21.0982 56.7383 21.0982C53.5875 21.0982 51.0317 23.6522 51.0317 26.8048C51.0317 29.9557 53.5857 32.5115 56.7383 32.5115Z" fill="white"/>
<path d="M90.8313 31.1513L90.7902 31.1901L90.8069 31.2078H90.8313V31.1513ZM95.7006 31.8235L95.672 31.8722L95.6722 31.8723L95.7006 31.8235ZM97.2127 33.3201L97.161 33.3429L97.1611 33.3429L97.2127 33.3201ZM94.0882 47.9753L94.1001 48.0305L94.1001 48.0305L94.0882 47.9753ZM82.7013 45.9163L82.6684 45.9622L82.6685 45.9622L82.7013 45.9163ZM77.7846 38.3075L77.7304 38.3234L77.7304 38.3234L77.7846 38.3075ZM77.6564 15.2095L77.7111 15.2236L77.7111 15.2236L77.6564 15.2095ZM82.3974 6.80986L82.3596 6.76785L82.3596 6.76787L82.3974 6.80986ZM98.945 7.37901L98.9043 7.41818L98.9043 7.41819L98.945 7.37901ZM105.611 17.8356L105.557 17.853L105.57 17.8921H105.611V17.8356ZM107.775 17.8356V17.8921H107.831V17.8356H107.775ZM107.775 1.0004H107.831V0.943913H107.775V1.0004ZM106.544 1.0004V0.943913H106.503L106.491 0.98273L106.544 1.0004ZM105.085 3.74796L105.123 3.78968L105.123 3.78967L105.085 3.74796ZM99.4962 3.16003L99.4751 3.21242L99.4751 3.21243L99.4962 3.16003ZM94.7712 1.56198L94.7596 1.61728L94.7605 1.61744L94.7712 1.56198ZM71.4175 8.42907L71.3768 8.38995L71.3767 8.38997L71.4175 8.42907ZM66.6082 37.5143L66.5573 37.5386L66.5574 37.5389L66.6082 37.5143ZM71.6648 44.2923L71.6262 44.3336L71.6263 44.3336L71.6648 44.2923ZM79.1258 49.1531L79.1031 49.2049L79.1032 49.2049L79.1258 49.1531ZM99.4199 49.9655L99.4321 50.0207L99.4322 50.0207L99.4199 49.9655ZM108.395 46.8936L108.419 46.9447L108.451 46.9295V46.8936H108.395ZM108.692 33.6835L108.743 33.7065L108.744 33.7052L108.692 33.6835ZM110.198 31.8658L110.225 31.915L110.225 31.915L110.198 31.8658ZM114.28 31.1416L114.284 31.198L114.336 31.1942V31.1416H114.28ZM114.28 29.516H114.336V29.4595H114.28V29.516ZM90.8222 29.516V29.4595H90.7657V29.516H90.8222ZM90.8222 31.1416H90.7657V31.1641L90.7811 31.1804L90.8222 31.1416ZM17.2708 47.8884V47.9449L17.2898 47.8352L17.2708 47.8884ZM17.264 47.886L17.283 47.8328L17.2076 47.8058V47.886H17.264ZM12.0505 46.4585L12.0154 46.5027L12.0154 46.5028L12.0505 46.4585ZM10.2439 12.3008L10.288 12.2654L10.1874 12.1401V12.3008H10.2439ZM41.2742 50.9838L41.2302 51.0192L41.2471 51.0403L41.2742 51.0403L41.2742 50.9838ZM43.2861 50.9862L43.286 51.0427L43.3426 51.0428V50.9862H43.2861ZM43.8424 7.71511L43.79 7.69408L43.79 7.69408L43.8424 7.71511ZM45.3914 5.71684L45.3617 5.66878L45.3616 5.6688L45.3914 5.71684ZM49.2809 4.71792L49.2883 4.77391L49.3373 4.76737V4.71792H49.2809ZM49.2809 2.71047H49.3373V2.65398H49.2809V2.71047ZM33.8875 2.71047V2.65398H33.831V2.71047H33.8875ZM33.8875 4.71792H33.831V4.77545L33.8885 4.7744L33.8875 4.71792ZM39.3115 6.68102L39.356 6.64619L39.3558 6.64593L39.3115 6.68102ZM40.4914 32.1955L40.4477 32.2313L40.5479 32.3535V32.1955H40.4914ZM16.3349 2.71086L16.3786 2.67506L16.3617 2.65437H16.3349V2.71086ZM1.63659 2.71086V2.65437H1.5801V2.71086H1.63659ZM1.63659 4.30372H1.5801V4.35837L1.63471 4.36018L1.63659 4.30372ZM3.29875 4.85817L3.26424 4.9029L3.26424 4.9029L3.29875 4.85817ZM3.82736 5.21319L3.86743 5.17337L3.86139 5.16729L3.85382 5.16328L3.82736 5.21319ZM7.76475 9.17575L7.82124 9.17576L7.82124 9.15246L7.80482 9.13593L7.76475 9.17575ZM7.75924 40.945L7.70275 40.945V40.945H7.75924ZM6.27224 46.2811L6.31325 46.32L6.31326 46.32L6.27224 46.2811ZM1 47.886L0.999472 47.8295L0.943511 47.83V47.886H1ZM1 49.8063H0.943511V49.8628H1V49.8063ZM17.264 49.8063V49.8628H17.3205V49.8063H17.264ZM91.994 31.0948H90.8313V31.2078H91.994V31.0948ZM95.7292 31.7748C95.3371 31.5446 94.6723 31.3754 93.9762 31.2633C93.2779 31.1509 92.5394 31.0948 91.994 31.0948V31.2078C92.533 31.2078 93.2655 31.2634 93.9583 31.3749C94.6533 31.4867 95.2996 31.6536 95.672 31.8722L95.7292 31.7748ZM97.2644 33.2973C97.0146 32.73 96.5 32.223 95.729 31.7747L95.6722 31.8723C96.4317 32.3139 96.9244 32.8054 97.161 33.3429L97.2644 33.2973ZM97.6367 36.9739C97.6367 36.0319 97.6058 35.2547 97.5442 34.643C97.4827 34.0328 97.3902 33.5824 97.2644 33.2973L97.1611 33.3429C97.2793 33.611 97.3706 34.0465 97.4318 34.6544C97.4929 35.2608 97.5237 36.0339 97.5237 36.9739H97.6367ZM97.6367 44.3631V36.9739H97.5237V44.3631H97.6367ZM94.1001 48.0305C94.6756 47.9057 95.557 47.5567 96.2958 46.9569C97.0353 46.3564 97.6367 45.5003 97.6367 44.3631H97.5237C97.5237 45.4557 96.9471 46.2825 96.2246 46.8691C95.5013 47.4564 94.6366 47.7985 94.0762 47.9201L94.1001 48.0305ZM90.7615 48.4016C91.8462 48.4016 92.9578 48.2777 94.1001 48.0305L94.0762 47.9201C92.9411 48.1657 91.8375 48.2886 90.7615 48.2886V48.4016ZM82.6685 45.9622C84.9438 47.5895 87.6401 48.4016 90.7615 48.4016V48.2886C87.6608 48.2886 84.9882 47.4823 82.7342 45.8703L82.6685 45.9622ZM77.7304 38.3234C78.7498 41.7869 80.3941 44.3321 82.6684 45.9622L82.7342 45.8704C80.4857 44.2588 78.8531 41.7379 77.8387 38.2915L77.7304 38.3234ZM76.2079 26.2652C76.2079 30.8504 76.7136 34.8673 77.7304 38.3234L77.8387 38.2915C76.8257 34.8482 76.3209 30.8425 76.3209 26.2652H76.2079ZM77.6017 15.1954C76.6722 18.7908 76.2079 22.4813 76.2079 26.2652H76.3209C76.3209 22.4906 76.7841 18.8096 77.7111 15.2236L77.6017 15.1954ZM82.3596 6.76787C80.1181 8.78591 78.5324 11.5948 77.6017 15.1954L77.7111 15.2236C78.6376 11.6395 80.2137 8.85189 82.4352 6.85184L82.3596 6.76787ZM90.785 3.74299C87.4138 3.74299 84.6028 4.75115 82.3596 6.76785L82.4352 6.85186C84.6551 4.85607 87.4382 3.85597 90.785 3.85597V3.74299ZM98.9857 7.33984C97.6887 5.99199 96.5219 5.09159 95.2358 4.52888C93.9494 3.96607 92.5481 3.74299 90.785 3.74299V3.85597C92.5384 3.85597 93.923 4.07783 95.1905 4.63238C96.4582 5.18703 97.6131 6.07639 98.9043 7.41818L98.9857 7.33984ZM105.665 17.8182C104.179 13.2212 101.634 10.0909 98.9857 7.33984L98.9043 7.41819C101.547 10.1639 104.079 13.2795 105.557 17.853L105.665 17.8182ZM107.775 17.7791H105.611V17.8921H107.775V17.7791ZM107.718 1.0004V17.8356H107.831V1.0004H107.718ZM106.544 1.05689H107.775V0.943913H106.544V1.05689ZM105.123 3.78967C105.665 3.29525 106.153 2.36826 106.598 1.01807L106.491 0.98273C106.047 2.32937 105.566 3.23249 105.047 3.70625L105.123 3.78967ZM103.361 4.53098C103.994 4.53098 104.583 4.28287 105.123 3.78968L105.047 3.70624C104.524 4.18362 103.962 4.418 103.361 4.418V4.53098ZM99.4751 3.21243C100.563 3.65074 101.431 3.97979 102.077 4.19936C102.4 4.30912 102.668 4.39176 102.881 4.44701C103.092 4.50191 103.253 4.53098 103.361 4.53098V4.418C103.269 4.418 103.119 4.3923 102.909 4.33766C102.7 4.28337 102.435 4.2017 102.113 4.09239C101.47 3.8738 100.605 3.54563 99.5173 3.10763L99.4751 3.21243ZM94.7605 1.61744C95.7268 1.80403 97.2979 2.33494 99.4751 3.21242L99.5173 3.10763C97.3401 2.2301 95.7599 1.69537 94.7819 1.50651L94.7605 1.61744ZM89.3591 1.05649C91.585 1.05649 92.9723 1.24451 94.7596 1.61728L94.7827 1.50668C92.9889 1.13255 91.5938 0.943511 89.3591 0.943511V1.05649ZM71.4583 8.46818C76.2 3.52718 82.1682 1.05649 89.3591 1.05649V0.943511C82.1392 0.943511 76.141 3.42553 71.3768 8.38995L71.4583 8.46818ZM64.3445 26.6343C64.3445 19.4667 66.7159 13.4138 71.4583 8.46816L71.3767 8.38997C66.6132 13.3577 64.2315 19.439 64.2315 26.6343H64.3445ZM66.6592 37.4899C65.1155 34.2591 64.3445 30.641 64.3445 26.6343H64.2315C64.2315 30.6558 65.0055 34.2909 66.5573 37.5386L66.6592 37.4899ZM71.7033 44.251C69.554 42.2464 67.8721 39.9945 66.6591 37.4896L66.5574 37.5389C67.7768 40.057 69.4674 42.3201 71.6262 44.3336L71.7033 44.251ZM79.1485 49.1014C76.3381 47.8704 73.854 46.253 71.7032 44.2509L71.6263 44.3336C73.7868 46.3448 76.2817 47.9691 79.1031 49.2049L79.1485 49.1014ZM89.7541 50.9435C85.4934 50.9435 81.9577 50.3279 79.1484 49.1014L79.1032 49.2049C81.9312 50.4396 85.4835 51.0565 89.7541 51.0565V50.9435ZM99.4077 49.9104C96.3044 50.5989 93.0893 50.9435 89.7541 50.9435V51.0565C93.0972 51.0565 96.3205 50.7111 99.4321 50.0207L99.4077 49.9104ZM108.371 46.8425C105.495 48.1968 102.511 49.2195 99.4076 49.9104L99.4322 50.0207C102.544 49.328 105.535 48.3025 108.419 46.9447L108.371 46.8425ZM108.338 36.9643V46.8936H108.451V36.9643H108.338ZM108.64 33.6605C108.536 33.8926 108.462 34.2859 108.412 34.8332C108.363 35.3825 108.338 36.0931 108.338 36.9643H108.451C108.451 36.0948 108.476 35.3879 108.525 34.8434C108.574 34.2968 108.648 33.9201 108.743 33.7065L108.64 33.6605ZM110.17 31.8165C109.505 32.1898 108.996 32.8052 108.639 33.6618L108.744 33.7052C109.093 32.8666 109.587 32.2734 110.225 31.915L110.17 31.8165ZM114.276 31.0853C113.447 31.1451 112.587 31.2347 111.853 31.3555C111.121 31.4757 110.505 31.628 110.17 31.8165L110.225 31.915C110.541 31.7374 111.138 31.5874 111.871 31.4669C112.601 31.347 113.457 31.2576 114.284 31.198L114.276 31.0853ZM114.223 29.516V31.1416H114.336V29.516H114.223ZM90.8222 29.5725H114.28V29.4595H90.8222V29.5725ZM90.8787 31.1416V29.516H90.7657V31.1416H90.8787ZM90.8724 31.1125L90.8633 31.1029L90.7811 31.1804L90.7902 31.1901L90.8724 31.1125ZM17.264 47.9449H17.2708V47.8319H17.264V47.9449ZM17.2076 47.886V47.8884H17.3205V47.886H17.2076ZM17.2898 47.8352L17.283 47.8328L17.245 47.9392L17.2518 47.9416L17.2898 47.8352ZM16.1884 47.9449H17.264V47.8319H16.1884V47.9449ZM12.0154 46.5028C13.2313 47.4641 14.6229 47.9449 16.1884 47.9449V47.8319C14.648 47.8319 13.2812 47.3596 12.0855 46.4141L12.0154 46.5028ZM10.1874 40.9466C10.1874 43.6727 10.7905 45.5323 12.0154 46.5027L12.0855 46.4142C10.9028 45.4771 10.3004 43.6636 10.3004 40.9466H10.1874ZM10.1874 12.3008V40.9466H10.3004V12.3008H10.1874ZM41.3183 50.9485L10.288 12.2654L10.1998 12.3361L41.2302 51.0192L41.3183 50.9485ZM43.2861 50.9297L41.2743 50.9273L41.2742 51.0403L43.286 51.0427L43.2861 50.9297ZM43.2296 11.5323V50.9862H43.3426V11.5323H43.2296ZM43.79 7.69408C43.6043 8.15739 43.4635 8.55517 43.3697 9.11941C43.2762 9.68247 43.2296 10.4096 43.2296 11.5323H43.3426C43.3426 10.4119 43.3891 9.69192 43.4812 9.13793C43.5731 8.58512 43.7105 8.19586 43.8949 7.73613L43.79 7.69408ZM45.3616 5.6688C44.6879 6.08569 44.1635 6.76291 43.79 7.69408L43.8949 7.73613C44.2618 6.82122 44.7728 6.16598 45.4211 5.76488L45.3616 5.6688ZM49.2734 4.66193C48.3071 4.79091 47.4977 4.93885 46.8464 5.10605C46.1958 5.27305 45.6995 5.46008 45.3617 5.66878L45.4211 5.7649C45.7446 5.565 46.2281 5.38138 46.8745 5.21548C47.52 5.04977 48.3247 4.90255 49.2883 4.77391L49.2734 4.66193ZM49.2244 2.71047V4.71792H49.3373V2.71047H49.2244ZM33.8875 2.76696H49.2809V2.65398H33.8875V2.76696ZM33.944 4.71792V2.71047H33.831V4.71792H33.944ZM39.3558 6.64593C38.266 5.27092 36.4333 4.61494 33.8865 4.66144L33.8885 4.7744C36.4174 4.72823 38.2082 5.37991 39.2672 6.71611L39.3558 6.64593ZM40.5479 11.5339C40.5479 10.1057 40.4496 9.13785 40.2511 8.39975C40.0521 7.65977 39.753 7.15299 39.356 6.64619L39.267 6.71585C39.6569 7.21357 39.9477 7.70692 40.142 8.42909C40.3367 9.15313 40.4349 10.1095 40.4349 11.5339H40.5479ZM40.5479 32.1955V11.5339H40.4349V32.1955H40.5479ZM16.2912 2.74666L40.4477 32.2313L40.5351 32.1597L16.3786 2.67506L16.2912 2.74666ZM1.63659 2.76735H16.3349V2.65437H1.63659V2.76735ZM1.69308 4.30372V2.71086H1.5801V4.30372H1.69308ZM3.33325 4.81345C3.15269 4.67414 2.97813 4.53916 2.72299 4.43626C2.46792 4.33338 2.13574 4.26375 1.63846 4.24726L1.63471 4.36018C2.12334 4.37638 2.44154 4.44456 2.68073 4.54103C2.91984 4.63747 3.0834 4.76337 3.26424 4.9029L3.33325 4.81345ZM3.85382 5.16328C3.63947 5.0496 3.48398 4.92974 3.33325 4.81345L3.26424 4.9029C3.41501 5.01922 3.5772 5.14446 3.80089 5.26309L3.85382 5.16328ZM7.80482 9.13593L3.86743 5.17337L3.78729 5.253L7.72468 9.21557L7.80482 9.13593ZM7.81573 40.945L7.82124 9.17576L7.70826 9.17574L7.70275 40.945L7.81573 40.945ZM6.31326 46.32C7.3193 45.2576 7.81573 43.4615 7.81573 40.945H7.70275C7.70275 43.4523 7.20707 45.2118 6.23123 46.2423L6.31326 46.32ZM1.00053 47.9425C3.52743 47.9188 5.30537 47.3839 6.31325 46.32L6.23123 46.2423C5.25564 47.2721 3.51715 47.806 0.999472 47.8295L1.00053 47.9425ZM1.05649 49.8063V47.886H0.943511V49.8063H1.05649ZM17.264 49.7499H1V49.8628H17.264V49.7499ZM17.2076 47.8884V49.8063H17.3205V47.8884H17.2076ZM62.3884 26.8048C62.3884 29.9263 59.8579 32.455 56.7383 32.455V32.568C59.9203 32.568 62.5014 29.9887 62.5014 26.8048H62.3884ZM56.7383 21.1547C59.8597 21.1547 62.3884 23.6852 62.3884 26.8048H62.5014C62.5014 23.6228 59.9221 21.0417 56.7383 21.0417V21.1547ZM51.0882 26.8048C51.0882 23.6834 53.6187 21.1547 56.7383 21.1547V21.0417C53.5563 21.0417 50.9752 23.621 50.9752 26.8048H51.0882ZM56.7383 32.455C53.6169 32.455 51.0882 29.9245 51.0882 26.8048H50.9752C50.9752 29.9868 53.5545 32.568 56.7383 32.568V32.455Z" fill="white"/>
</svg>
