<svg width="50" height="38" viewBox="0 0 50 38" fill="none" xmlns="http://www.w3.org/2000/svg">
<path fill-rule="evenodd" clip-rule="evenodd" d="M4 18.8669C4 14.5695 5.07814 10.8126 7.05003 8.1834C8.97235 5.62031 11.8296 4 15.8001 4H34.2003C38.1708 4 41.0281 5.6203 42.9504 8.1834C44.9223 10.8126 46.0004 14.5695 46.0004 18.8669C46.0004 23.1642 44.9223 26.9211 42.9504 29.5503C41.0281 32.1134 38.1708 33.7337 34.2003 33.7337C29.6035 33.7337 27.3047 33.7298 25.0062 33.7259L25.0036 33.7259C22.703 33.722 20.4017 33.7181 15.8001 33.7181C11.8281 33.7181 8.97089 32.1004 7.0493 29.5415C5.0781 26.9166 4 23.1642 4 18.8669ZM15.8001 0C10.5706 5.48363e-06 6.52776 2.21309 3.85003 5.78341C1.22188 9.28762 0 13.9641 0 18.8669C0 23.7697 1.22192 28.4428 3.85077 31.9435C6.52922 35.5102 10.5721 37.7181 15.8001 37.7181C20.3978 37.7181 22.6966 37.722 24.9955 37.7259H24.9959H24.9968C27.2975 37.7298 29.5987 37.7337 34.2003 37.7337C39.4299 37.7337 43.4727 35.5206 46.1504 31.9503C48.7786 28.4461 50.0004 23.7696 50.0004 18.8669C50.0004 13.9641 48.7786 9.28761 46.1504 5.78341C43.4727 2.21309 39.4299 0 34.2003 0H15.8001ZM34.4 11.1999C34.4 9.8192 33.2808 8.69991 31.9 8.69991C30.5193 8.69991 29.4 9.8192 29.4 11.1999V19.4787L20.6841 10.25C19.9809 9.50544 18.8947 9.26508 17.943 9.64346C16.9912 10.0218 16.3666 10.9424 16.3666 11.9666V26.5334C16.3666 27.9141 17.4859 29.0334 18.8666 29.0334C20.2473 29.0334 21.3666 27.9141 21.3666 26.5334V18.2546L30.0825 27.4833C30.7857 28.2279 31.872 28.4682 32.8237 28.0898C33.7754 27.7115 34.4 26.7909 34.4 25.7667V11.1999Z" fill="white"/>
</svg>
