<svg width="50" height="50" viewBox="0 0 50 50" fill="none" xmlns="http://www.w3.org/2000/svg">
<path d="M49.5576 38.279C48.5768 39.8763 46.1897 41.0124 46.1897 41.0124L28.3867 49.2913V43.1833L41.4851 37.1316C42.9694 36.4454 43.2037 35.4668 41.9885 34.9494C40.782 34.4319 38.5946 34.5782 37.1103 35.2756L28.3867 39.2688V32.9246C30.4005 32.0472 32.4751 31.3948 34.9576 31.0349C38.5078 30.5287 42.8479 31.1024 46.2592 32.7784C50.0958 34.3532 50.5298 36.6817 49.5576 38.279ZM30.0793 27.874V12.2385C30.0793 10.4049 29.8189 8.71766 28.4909 8.23397C27.4753 7.80652 26.8416 9.03262 26.8416 10.8661V50L18.6996 46.6479V0C22.163 0.832396 27.2062 2.8009 29.9144 3.982C36.8151 7.05287 39.1501 10.8774 39.1501 19.4826C39.1501 27.8628 35.1572 31.0461 30.0793 27.874ZM3.75237 42.5422C-0.188428 41.1024 -0.848121 38.099 0.948674 36.378C2.60659 34.7807 5.43632 33.5771 5.43632 33.5771L17.1112 28.2002V34.3307L8.70875 38.2227C7.22444 38.9089 6.99875 39.8875 8.2053 40.4049C9.41184 40.9224 11.5992 40.7762 13.0836 40.0787L17.1112 38.1777V43.667C12.6322 44.7132 8.30946 44.4882 3.75237 42.5422Z" fill="white"/>
</svg>
