<svg width="39" height="50" viewBox="0 0 39 50" fill="none" xmlns="http://www.w3.org/2000/svg">
<path fill-rule="evenodd" clip-rule="evenodd" d="M22.1405 49.9825L0.00253483 50L0.0113016 42.9716H22.1642C27.3489 42.9716 31.5509 38.7695 31.5509 33.5837C31.5509 28.4003 27.3489 24.1983 22.1642 24.1983L16.3876 24.1345C12.1042 24.1345 8.63315 20.6634 8.63315 16.38C8.63315 12.0979 12.1042 8.62562 16.3876 8.62562H38.4904L38.4779 15.5664L16.3926 15.5639C15.9344 15.5639 15.5639 15.9344 15.5639 16.3951C15.5639 16.8519 15.9344 17.2237 16.3926 17.2237L22.1405 17.1962C31.1954 17.1962 38.5342 24.5363 38.5342 33.5887C38.5342 42.6437 31.1954 49.9825 22.1405 49.9825ZM22.1642 41.3381H0.0112688L0.00250207 34.4035L22.1066 34.396C22.5498 34.396 22.9077 34.0355 22.9077 33.5937C22.9077 33.1493 22.5498 32.7913 22.1066 32.7913L16.3925 32.7863C7.33885 32.7863 0 25.4475 0 16.395C0 7.34008 7.33885 0 16.3925 0L38.4779 0.0075264L38.4904 6.98458L16.3875 6.99463C11.2029 6.99463 7.00087 11.1966 7.00087 16.38C7.00087 21.5659 11.2029 25.7667 16.3875 25.7667L22.1642 25.8305C26.4476 25.8305 29.9186 29.3028 29.9186 33.5836C29.9186 37.867 26.4476 41.3381 22.1642 41.3381Z" fill="white"/>
</svg>
