<svg width="50" height="50" viewBox="0 0 50 50" fill="none" xmlns="http://www.w3.org/2000/svg">
<path d="M36.4814 31.2698C40.9476 36.7427 43.0043 41.2278 41.9659 43.2335C41.1694 44.7555 36.2495 47.7287 32.6302 48.8677C29.646 49.805 25.7343 50.2082 22.5081 49.8957C18.6569 49.5228 14.7553 48.142 11.4081 45.9649C8.59534 44.1306 7.96019 43.3746 7.96019 41.8729C7.96019 38.8593 11.2771 33.5779 16.9531 27.5507C20.1792 24.1339 24.6656 20.1225 25.1596 20.2334C26.1073 20.445 33.6585 27.8027 36.4814 31.2698ZM18.2032 13.6921C15.209 10.9809 12.3457 8.25957 9.49261 7.30207C7.96019 6.78804 7.84929 6.81828 6.59916 8.11847C3.65529 11.1825 1.20543 16.1514 0.519871 20.4551C-0.0245422 23.9021 -0.0951143 24.8697 0.0964386 26.5529C0.661016 31.6427 1.84058 35.1603 4.17954 38.7383C5.1373 40.2098 5.39943 40.482 5.11714 39.7361C4.69371 38.6274 5.0869 35.9565 6.07491 33.2856C7.51659 29.3548 11.509 21.9065 18.2032 13.6921ZM49.6179 20.0923C47.9141 12.0291 42.8127 6.95939 42.0969 6.95939C41.361 6.95939 39.6572 7.61452 38.4675 8.36036C36.1185 9.82181 34.334 11.5252 31.985 13.682C36.2596 19.0541 42.2885 27.7321 44.3754 34.0718C45.061 36.1581 45.3533 38.2142 45.1215 39.3431C44.9501 40.1998 44.9501 40.1998 45.2626 39.8067C45.8776 39.0306 47.2689 36.652 47.8234 35.4223C48.5694 33.7896 49.3356 31.3706 49.6986 29.506C50.1321 27.2382 50.0917 22.3701 49.6179 20.0923ZM13.4346 3.53254C18.2436 3.28057 24.4942 7.00978 24.958 7.10049C25.0286 7.11057 26.0065 6.67718 27.1356 6.12283C33.5779 2.98828 36.6125 3.52246 37.9634 3.58294C31.5212 -0.378089 22.5686 -1.45654 14.3823 2.4037C12.0231 3.52246 11.9626 3.6031 13.4346 3.53254Z" fill="white"/>
</svg>
